<svg width="30" height="30" viewBox="0 0 30 30" fill="none" xmlns="http://www.w3.org/2000/svg">
<path d="M13.0333 1.92524V23.4301L3.38551 14.035C2.61448 13.2841 1.3492 13.2841 0.578163 14.035C0.394888 14.2131 0.249484 14.4246 0.150275 14.6575C0.0510655 14.8905 0 15.1401 0 15.3923C0 15.6444 0.0510655 15.8941 0.150275 16.127C0.249484 16.3599 0.394888 16.5714 0.578163 16.7496L13.6066 29.4369C14.3777 30.1877 15.6232 30.1877 16.3942 29.4369L29.4227 16.7496C29.6057 16.5713 29.7509 16.3597 29.85 16.1268C29.949 15.8939 30 15.6443 30 15.3923C30 15.1402 29.949 14.8906 29.85 14.6577C29.7509 14.4248 29.6057 14.2132 29.4227 14.035C29.2396 13.8567 29.0223 13.7153 28.7832 13.6189C28.5441 13.5224 28.2877 13.4728 28.0289 13.4728C27.77 13.4728 27.5137 13.5224 27.2746 13.6189C27.0354 13.7153 26.8181 13.8567 26.6351 14.035L16.9873 23.4301V1.92524C16.9873 0.866356 16.0977 0 15.0103 0C13.923 0 13.0333 0.866356 13.0333 1.92524Z" fill="#F5F5F5"/>
</svg>
