<svg width="30" height="30" viewBox="0 0 30 30" fill="none" xmlns="http://www.w3.org/2000/svg">
<path d="M16.9753 28.0748V6.56979L26.6167 15.965C27.3872 16.7158 28.6517 16.7158 29.4222 15.965C29.6054 15.7869 29.7507 15.5753 29.8498 15.3424C29.949 15.1095 30 14.8598 30 14.6077C30 14.3555 29.949 14.1059 29.8498 13.873C29.7507 13.6401 29.6054 13.4285 29.4222 13.2504L16.4023 0.563026C16.2196 0.384549 16.0024 0.242952 15.7634 0.146341C15.5244 0.0497294 15.2682 0 15.0095 0C14.7507 0 14.4945 0.0497294 14.2555 0.146341C14.0165 0.242952 13.7994 0.384549 13.6166 0.563026L0.576946 13.2311C0.394031 13.4094 0.248935 13.621 0.149943 13.8539C0.0509503 14.0867 3.85464e-09 14.3364 0 14.5884C-3.85463e-09 14.8405 0.0509503 15.0901 0.149943 15.323C0.248935 15.5559 0.394031 15.7675 0.576946 15.9457C0.75986 16.124 0.977011 16.2654 1.216 16.3618C1.45499 16.4583 1.71114 16.5079 1.96982 16.5079C2.2285 16.5079 2.48464 16.4583 2.72363 16.3618C2.96262 16.2654 3.17977 16.124 3.36269 15.9457L13.0239 6.56979V28.0748C13.0239 29.1336 13.9129 30 14.9996 30C16.0862 30 16.9753 29.1336 16.9753 28.0748Z" fill="#F5F5F5"/>
</svg>
