<svg width="235" height="171" viewBox="0 0 235 171" fill="none" xmlns="http://www.w3.org/2000/svg">
<path d="M58.6667 170.667C42.4889 170.667 28.6649 165.067 17.1947 153.867C5.72445 142.667 -0.0071045 128.978 6.60884e-06 112.8C6.60884e-06 98.9333 4.17778 86.5778 12.5333 75.7333C20.8889 64.8889 31.8222 57.9555 45.3333 54.9333C49.7778 38.5778 58.6667 25.3333 72 15.2C85.3333 5.06667 100.444 0 117.333 0C138.133 0 155.78 7.24622 170.272 21.7387C184.764 36.2311 192.007 53.8738 192 74.6667C204.267 76.0889 214.446 81.3795 222.539 90.5387C230.631 99.6978 234.674 110.407 234.667 122.667C234.667 136 229.998 147.335 220.661 156.672C211.324 166.009 199.993 170.674 186.667 170.667H58.6667Z" fill="#D9D9D9"/>
</svg>
