<svg width="256" height="241" viewBox="0 0 256 241" fill="none" xmlns="http://www.w3.org/2000/svg">
<path d="M66.528 177.4C67.5253 177.733 68.4473 178.259 69.2413 178.948C70.0353 179.637 70.6856 180.476 71.1552 181.416C71.6247 182.357 71.9043 183.381 71.9779 184.43C72.0515 185.478 71.9176 186.531 71.584 187.528L63.584 211.528C63.2827 212.561 62.776 213.523 62.0944 214.356C61.4127 215.188 60.5701 215.875 59.6168 216.374C58.6636 216.874 57.6194 217.176 56.5468 217.262C55.4741 217.349 54.3951 217.218 53.3742 216.878C52.3533 216.537 51.4115 215.995 50.6053 215.282C49.799 214.569 49.1449 213.701 48.682 212.73C48.2191 211.758 47.9569 210.703 47.9112 209.628C47.8655 208.553 48.0372 207.479 48.416 206.472L56.416 182.472C57.0845 180.459 58.5254 178.793 60.4217 177.842C62.318 176.891 64.5145 176.732 66.528 177.4ZM114.528 177.4C115.525 177.733 116.447 178.259 117.241 178.948C118.035 179.637 118.686 180.476 119.155 181.416C119.625 182.357 119.904 183.381 119.978 184.43C120.051 185.478 119.918 186.531 119.584 187.528L103.584 235.528C103.283 236.561 102.776 237.523 102.094 238.356C101.413 239.188 100.57 239.875 99.6168 240.374C98.6636 240.874 97.6194 241.176 96.5468 241.262C95.4741 241.349 94.3951 241.218 93.3742 240.878C92.3533 240.537 91.4115 239.995 90.6053 239.282C89.799 238.569 89.1449 237.701 88.682 236.73C88.2191 235.758 87.9569 234.703 87.9112 233.628C87.8655 232.553 88.0372 231.479 88.416 230.472L104.416 182.472C105.084 180.459 106.525 178.793 108.422 177.842C110.318 176.891 112.514 176.732 114.528 177.4ZM162.528 177.4C163.525 177.733 164.447 178.259 165.241 178.948C166.035 179.637 166.686 180.476 167.155 181.416C167.625 182.357 167.904 183.381 167.978 184.43C168.051 185.478 167.918 186.531 167.584 187.528L159.584 211.528C159.283 212.561 158.776 213.523 158.094 214.356C157.413 215.188 156.57 215.875 155.617 216.374C154.664 216.874 153.619 217.176 152.547 217.262C151.474 217.349 150.395 217.218 149.374 216.878C148.353 216.537 147.411 215.995 146.605 215.282C145.799 214.569 145.145 213.701 144.682 212.73C144.219 211.758 143.957 210.703 143.911 209.628C143.866 208.553 144.037 207.479 144.416 206.472L152.416 182.472C153.084 180.459 154.525 178.793 156.422 177.842C158.318 176.891 160.514 176.732 162.528 177.4ZM210.528 177.4C211.525 177.733 212.447 178.259 213.241 178.948C214.035 179.637 214.686 180.476 215.155 181.416C215.625 182.357 215.904 183.381 215.978 184.43C216.051 185.478 215.918 186.531 215.584 187.528L199.584 235.528C199.283 236.561 198.776 237.523 198.094 238.356C197.413 239.188 196.57 239.875 195.617 240.374C194.664 240.874 193.619 241.176 192.547 241.262C191.474 241.349 190.395 241.218 189.374 240.878C188.353 240.537 187.411 239.995 186.605 239.282C185.799 238.569 185.145 237.701 184.682 236.73C184.219 235.758 183.957 234.703 183.911 233.628C183.866 232.553 184.037 231.479 184.416 230.472L200.416 182.472C201.084 180.459 202.525 178.793 204.422 177.842C206.318 176.891 208.514 176.732 210.528 177.4ZM214.48 65.4322C211.157 48.6828 202.564 33.4356 189.955 21.9199C177.347 10.4042 161.385 3.224 144.404 1.42917C127.423 -0.365669 110.313 3.31898 95.5754 11.9444C80.8382 20.5698 69.2468 33.6835 62.496 49.3682C54.9254 48.4961 47.2564 49.1783 39.9587 51.3731C32.6609 53.568 25.8879 57.2292 20.0543 62.1327C14.2208 67.0361 9.44938 73.0786 6.03232 79.8903C2.61527 86.7019 0.624443 94.1393 0.181736 101.747C-0.260971 109.355 0.853757 116.973 3.45767 124.135C6.06159 131.297 10.0999 137.852 15.3253 143.399C20.5508 148.946 26.8534 153.368 33.8473 156.395C40.8413 159.421 48.3793 160.988 56 161H208C220.178 161.014 231.906 156.399 240.808 148.089C249.71 139.78 255.121 128.397 255.945 116.247C256.769 104.098 252.944 92.0888 245.245 82.6536C237.546 73.2184 226.548 67.0623 214.48 65.4322Z" fill="#D9D9D9"/>
</svg>
