<svg width="302" height="257" viewBox="0 0 302 257" fill="none" xmlns="http://www.w3.org/2000/svg">
<path d="M250 120C250 133.449 246.012 146.596 238.54 157.779C231.068 168.961 220.448 177.677 208.022 182.824C195.597 187.971 181.925 189.317 168.734 186.693C155.543 184.07 143.427 177.593 133.917 168.083C124.407 158.573 117.93 146.457 115.307 133.266C112.683 120.075 114.029 106.403 119.176 93.9775C124.323 81.5521 133.039 70.932 144.221 63.4601C155.404 55.9881 168.551 52 182 52C200.027 52.0265 217.307 59.1992 230.054 71.946C242.801 84.6927 249.974 101.973 250 120ZM182 36C184.122 36 186.157 35.1571 187.657 33.6569C189.157 32.1566 190 30.1217 190 28V8C190 5.87827 189.157 3.84344 187.657 2.34315C186.157 0.842854 184.122 0 182 0C179.878 0 177.843 0.842854 176.343 2.34315C174.843 3.84344 174 5.87827 174 8V28C174 30.1217 174.843 32.1566 176.343 33.6569C177.843 35.1571 179.878 36 182 36ZM111.3 60.6C112.812 62.0722 114.839 62.8959 116.95 62.8959C119.061 62.8959 121.088 62.0722 122.6 60.6C124.096 59.1003 124.936 57.0684 124.936 54.95C124.936 52.8316 124.096 50.7997 122.6 49.3L108.5 35.1C107.783 34.226 106.89 33.5119 105.88 33.0036C104.871 32.4952 103.765 32.204 102.636 32.1485C101.507 32.093 100.378 32.2746 99.3236 32.6815C98.2687 33.0884 97.3107 33.7117 96.5112 34.5112C95.7117 35.3107 95.0884 36.2687 94.6815 37.3236C94.2746 38.3784 94.093 39.5068 94.1485 40.6361C94.204 41.7654 94.4952 42.8705 95.0036 43.8805C95.5119 44.8904 96.226 45.7827 97.1 46.5L111.3 60.6ZM98 120C98 117.878 97.1571 115.843 95.6569 114.343C94.1566 112.843 92.1217 112 90 112H70C67.8783 112 65.8434 112.843 64.3431 114.343C62.8429 115.843 62 117.878 62 120C62 122.122 62.8429 124.157 64.3431 125.657C65.8434 127.157 67.8783 128 70 128H90C92.1217 128 94.1566 127.157 95.6569 125.657C97.1571 124.157 98 122.122 98 120ZM111.3 179.4L97.1 193.5C95.5977 195.017 94.755 197.065 94.755 199.2C94.755 201.335 95.5977 203.383 97.1 204.9C98.6466 206.351 100.68 207.171 102.8 207.2C104.924 207.191 106.964 206.368 108.5 204.9L122.6 190.7C123.979 189.178 124.72 187.184 124.669 185.131C124.619 183.079 123.781 181.124 122.328 179.672C120.876 178.219 118.921 177.381 116.869 177.331C114.816 177.28 112.822 178.021 111.3 179.4ZM182 204C179.878 204 177.843 204.843 176.343 206.343C174.843 207.843 174 209.878 174 212V232C174 234.122 174.843 236.157 176.343 237.657C177.843 239.157 179.878 240 182 240C184.122 240 186.157 239.157 187.657 237.657C189.157 236.157 190 234.122 190 232V212C190 209.878 189.157 207.843 187.657 206.343C186.157 204.843 184.122 204 182 204ZM252.7 179.4C251.178 178.021 249.184 177.28 247.131 177.331C245.079 177.381 243.124 178.219 241.672 179.672C240.219 181.124 239.381 183.079 239.331 185.131C239.28 187.184 240.021 189.178 241.4 190.7L255.5 204.9C257.036 206.368 259.076 207.191 261.2 207.2C263.32 207.171 265.353 206.351 266.9 204.9C268.402 203.383 269.245 201.335 269.245 199.2C269.245 197.065 268.402 195.017 266.9 193.5L252.7 179.4ZM294 112H274C271.878 112 269.843 112.843 268.343 114.343C266.843 115.843 266 117.878 266 120C266 122.122 266.843 124.157 268.343 125.657C269.843 127.157 271.878 128 274 128H294C296.122 128 298.157 127.157 299.657 125.657C301.157 124.157 302 122.122 302 120C302 117.878 301.157 115.843 299.657 114.343C298.157 112.843 296.122 112 294 112ZM247.1 62.9C248.14 62.9092 249.171 62.7104 250.132 62.3155C251.094 61.9205 251.967 61.3372 252.7 60.6L266.9 46.5C268.176 44.9456 268.828 42.9723 268.729 40.9639C268.63 38.9555 267.788 37.0556 266.366 35.6337C264.944 34.2118 263.045 33.3696 261.036 33.271C259.028 33.1724 257.054 33.8243 255.5 35.1L241.4 49.3C239.904 50.7997 239.064 52.8316 239.064 54.95C239.064 57.0684 239.904 59.1003 241.4 60.6C242.145 61.3494 243.034 61.9398 244.014 62.3351C244.994 62.7305 246.044 62.9227 247.1 62.9Z" fill="#F7DF1E"/>
<path d="M7.50001 195.972V195.969C7.50001 183.15 11.6572 171.819 20.1617 161.701C28.6178 151.64 39.6652 145.155 53.6656 142.285L58.0715 141.381L59.3498 137.069C63.9598 121.518 73.1242 108.941 87.1281 99.1851C101.16 89.4099 117.037 84.5 135 84.5C157.175 84.5 175.636 91.5175 190.842 105.456C206.021 119.371 213.416 135.994 213.409 155.747L213.407 162.495L220.116 163.208C232.587 164.533 242.633 169.381 250.646 177.695C258.665 186.014 262.507 195.463 262.5 206.37V206.375C262.5 218.25 258.075 228.226 248.818 236.711C239.537 245.219 228.339 249.507 214.776 249.5H214.773H67.5C50.6293 249.5 36.5329 244.207 24.7856 233.693C13.1101 223.242 7.49289 210.81 7.50001 195.972Z" fill="#D9D9D9" stroke="#232933" stroke-width="15"/>
</svg>
