<svg width="172" height="214" viewBox="0 0 172 214" fill="none" xmlns="http://www.w3.org/2000/svg">
<path d="M88.9332 181.667C91.0665 181.489 92.8905 180.643 94.4052 179.128C95.9198 177.613 96.6736 175.793 96.6665 173.667C96.6665 171.178 95.8665 169.176 94.2665 167.661C92.6665 166.147 90.6221 165.482 88.1332 165.667C80.8443 166.2 73.111 164.198 64.9332 159.661C56.7554 155.125 51.5998 146.904 49.4665 135C49.111 133.045 48.1794 131.445 46.6718 130.2C45.1643 128.956 43.4292 128.333 41.4665 128.333C38.9776 128.333 36.9332 129.269 35.3332 131.139C33.7332 133.009 33.1998 135.185 33.7332 137.667C36.7554 153.845 43.8665 165.4 55.0665 172.333C66.2665 179.267 77.5554 182.378 88.9332 181.667ZM85.9998 213.667C61.6443 213.667 41.3314 205.311 25.0612 188.6C8.79096 171.889 0.659397 151.089 0.666509 126.2C0.666509 108.422 7.73495 89.0873 21.8718 68.1948C36.0087 47.3024 57.3847 24.6819 85.9998 0.333496C114.622 24.689 136.002 47.313 150.139 68.2055C164.275 89.0979 171.34 108.429 171.333 126.2C171.333 151.089 163.198 171.889 146.928 188.6C130.658 205.311 110.348 213.667 85.9998 213.667ZM85.9998 192.333C104.489 192.333 119.778 186.065 131.866 173.528C143.955 160.991 150 145.215 150 126.2C150 113.222 144.62 98.5557 133.861 82.2002C123.102 65.8446 107.148 47.9779 85.9998 28.6002C64.8443 47.9779 48.8905 65.8446 38.1385 82.2002C27.3865 98.5557 22.007 113.222 21.9998 126.2C21.9998 145.222 28.0443 161.002 40.1332 173.539C52.2221 186.076 67.511 192.341 85.9998 192.333Z" fill="#F5F5F5"/>
</svg>
