<svg width="224" height="176" viewBox="0 0 224 176" fill="none" xmlns="http://www.w3.org/2000/svg">
<path d="M168 144C167.992 151.503 165.347 158.764 160.529 164.515C155.711 170.266 149.025 174.141 141.639 175.464C134.254 176.786 126.639 175.471 120.125 171.749C113.61 168.027 108.611 162.134 106 155.1C105.571 154.101 105.35 153.025 105.351 151.938C105.352 150.851 105.574 149.776 106.004 148.778C106.434 147.779 107.063 146.879 107.853 146.132C108.643 145.385 109.576 144.807 110.597 144.432C111.617 144.058 112.704 143.896 113.789 143.955C114.874 144.015 115.936 144.295 116.91 144.779C117.883 145.262 118.748 145.939 119.451 146.768C120.155 147.597 120.682 148.561 121 149.6C122.022 152.336 123.774 154.74 126.065 156.551C128.356 158.363 131.1 159.512 133.998 159.876C136.896 160.239 139.838 159.802 142.506 158.612C145.173 157.423 147.464 155.525 149.13 153.126C150.796 150.727 151.773 147.918 151.957 145.003C152.14 142.088 151.521 139.178 150.169 136.59C148.816 134.001 146.78 131.832 144.283 130.318C141.785 128.804 138.921 128.002 136 128H24C21.8783 128 19.8434 127.157 18.3431 125.657C16.8429 124.157 16 122.122 16 120C16 117.878 16.8429 115.843 18.3431 114.343C19.8434 112.843 21.8783 112 24 112H136C144.479 112.026 152.603 115.406 158.598 121.402C164.594 127.397 167.974 135.521 168 144ZM104 64C109.848 64.0024 115.584 62.4024 120.586 59.3739C125.589 56.3453 129.665 52.004 132.374 46.8214C135.082 41.6388 136.319 35.8132 135.949 29.9773C135.58 24.1413 133.618 18.5182 130.277 13.7188C126.936 8.91938 122.345 5.12708 117 2.75386C111.656 0.380635 105.763 -0.482778 99.9627 0.257401C94.1621 0.997581 88.6752 3.31305 84.098 6.95231C79.5209 10.5916 76.0284 15.4155 74 20.9C73.5711 21.8989 73.3502 22.9746 73.3509 24.0617C73.3516 25.1487 73.5739 26.2242 74.004 27.2225C74.4342 28.2208 75.0634 29.121 75.853 29.868C76.6427 30.6151 77.5763 31.1934 78.5969 31.5676C79.6175 31.9418 80.7036 32.1041 81.7891 32.0446C82.8745 31.985 83.9363 31.7049 84.9099 31.2213C85.8834 30.7377 86.7482 30.0608 87.4514 29.2319C88.1547 28.4029 88.6816 27.4394 89 26.4C90.0223 23.664 91.774 21.26 94.0652 19.4486C96.3564 17.6372 99.0998 16.4876 101.998 16.1243C104.896 15.761 107.838 16.1979 110.506 17.3877C113.173 18.5774 115.464 20.4747 117.13 22.8737C118.796 25.2727 119.773 28.082 119.957 30.997C120.14 33.912 119.521 36.8215 118.169 39.4102C116.816 41.9988 114.78 44.1678 112.283 45.682C109.785 47.1962 106.921 47.9978 104 48H8C5.87827 48 3.84344 48.8429 2.34315 50.3432C0.842854 51.8434 0 53.8783 0 56C0 58.1217 0.842854 60.1566 2.34315 61.6569C3.84344 63.1572 5.87827 64 8 64H104ZM192 32C185.467 32.0169 179.094 34.0268 173.734 37.7614C168.373 41.496 164.279 46.7773 162 52.9C161.571 53.8989 161.35 54.9746 161.351 56.0617C161.352 57.1487 161.574 58.2242 162.004 59.2225C162.434 60.2208 163.063 61.121 163.853 61.868C164.643 62.6151 165.576 63.1934 166.597 63.5676C167.617 63.9418 168.704 64.1041 169.789 64.0446C170.874 63.985 171.936 63.7049 172.91 63.2213C173.883 62.7377 174.748 62.0608 175.451 61.2319C176.155 60.4029 176.682 59.4394 177 58.4C178.022 55.664 179.774 53.26 182.065 51.4486C184.356 49.6372 187.1 48.4876 189.998 48.1243C192.896 47.761 195.838 48.1979 198.506 49.3877C201.173 50.5774 203.464 52.4747 205.13 54.8737C206.796 57.2727 207.773 60.082 207.957 62.997C208.14 65.912 207.521 68.8215 206.169 71.4102C204.816 73.9988 202.78 76.1678 200.283 77.682C197.785 79.1962 194.921 79.9978 192 80H16C13.8783 80 11.8434 80.8429 10.3431 82.3432C8.84285 83.8435 8 85.8783 8 88C8 90.1217 8.84285 92.1566 10.3431 93.6569C11.8434 95.1572 13.8783 96 16 96H192C200.487 96 208.626 92.6286 214.627 86.6274C220.629 80.6263 224 72.4869 224 64C224 55.5131 220.629 47.3738 214.627 41.3726C208.626 35.3714 200.487 32 192 32Z" fill="#F5F5F5"/>
</svg>
